<svg id="visual" viewBox="0 0 960 300" width="960" height="300" xmlns="http://www.w3.org/2000/svg" xmlns:xlink="http://www.w3.org/1999/xlink" version="1.1"><path d="M0 97L22.8 97.2C45.7 97.3 91.3 97.7 137 99.5C182.7 101.3 228.3 104.7 274 113.2C319.7 121.7 365.3 135.3 411.2 144.5C457 153.7 503 158.3 548.8 151.8C594.7 145.3 640.3 127.7 686 125.3C731.7 123 777.3 136 823 143.7C868.7 151.3 914.3 153.7 937.2 154.8L960 156L960 301L937.2 301C914.3 301 868.7 301 823 301C777.3 301 731.7 301 686 301C640.3 301 594.7 301 548.8 301C503 301 457 301 411.2 301C365.3 301 319.7 301 274 301C228.3 301 182.7 301 137 301C91.3 301 45.7 301 22.8 301L0 301Z" fill="#ab65fc"></path><path d="M0 157L22.8 155.5C45.7 154 91.3 151 137 153.5C182.7 156 228.3 164 274 164.7C319.7 165.3 365.3 158.7 411.2 160.8C457 163 503 174 548.8 174.5C594.7 175 640.3 165 686 157.3C731.7 149.7 777.3 144.3 823 142.2C868.7 140 914.3 141 937.2 141.5L960 142L960 301L937.2 301C914.3 301 868.7 301 823 301C777.3 301 731.7 301 686 301C640.3 301 594.7 301 548.8 301C503 301 457 301 411.2 301C365.3 301 319.7 301 274 301C228.3 301 182.7 301 137 301C91.3 301 45.7 301 22.8 301L0 301Z" fill="#ad55f0"></path><path d="M0 156L22.8 158.3C45.7 160.7 91.3 165.3 137 170.5C182.7 175.7 228.3 181.3 274 181.3C319.7 181.3 365.3 175.7 411.2 177.2C457 178.7 503 187.3 548.8 193C594.7 198.7 640.3 201.3 686 203.5C731.7 205.7 777.3 207.3 823 200.2C868.7 193 914.3 177 937.2 169L960 161L960 301L937.2 301C914.3 301 868.7 301 823 301C777.3 301 731.7 301 686 301C640.3 301 594.7 301 548.8 301C503 301 457 301 411.2 301C365.3 301 319.7 301 274 301C228.3 301 182.7 301 137 301C91.3 301 45.7 301 22.8 301L0 301Z" fill="#af44e3"></path><path d="M0 240L22.8 240C45.7 240 91.3 240 137 237.3C182.7 234.7 228.3 229.3 274 229.8C319.7 230.3 365.3 236.7 411.2 234.5C457 232.3 503 221.7 548.8 213.2C594.7 204.7 640.3 198.3 686 195.7C731.7 193 777.3 194 823 197.8C868.7 201.7 914.3 208.3 937.2 211.7L960 215L960 301L937.2 301C914.3 301 868.7 301 823 301C777.3 301 731.7 301 686 301C640.3 301 594.7 301 548.8 301C503 301 457 301 411.2 301C365.3 301 319.7 301 274 301C228.3 301 182.7 301 137 301C91.3 301 45.7 301 22.8 301L0 301Z" fill="#b02fd5"></path><path d="M0 248L22.8 245.7C45.7 243.3 91.3 238.7 137 239.5C182.7 240.3 228.3 246.7 274 253.7C319.7 260.7 365.3 268.3 411.2 267.5C457 266.7 503 257.3 548.8 253.8C594.7 250.3 640.3 252.7 686 256.5C731.7 260.3 777.3 265.7 823 262.7C868.7 259.7 914.3 248.3 937.2 242.7L960 237L960 301L937.2 301C914.3 301 868.7 301 823 301C777.3 301 731.7 301 686 301C640.3 301 594.7 301 548.8 301C503 301 457 301 411.2 301C365.3 301 319.7 301 274 301C228.3 301 182.7 301 137 301C91.3 301 45.7 301 22.8 301L0 301Z" fill="#b10ac7"></path></svg>