<svg id="visual" viewBox="0 0 960 300" width="960" height="300" xmlns="http://www.w3.org/2000/svg" xmlns:xlink="http://www.w3.org/1999/xlink" version="1.1"><path d="M0 106L22.8 101.5C45.7 97 91.3 88 137 93.8C182.7 99.7 228.3 120.3 274 129C319.7 137.7 365.3 134.3 411.2 123.5C457 112.7 503 94.3 548.8 97.5C594.7 100.7 640.3 125.3 686 129.2C731.7 133 777.3 116 823 103.5C868.7 91 914.3 83 937.2 79L960 75L960 301L937.2 301C914.3 301 868.7 301 823 301C777.3 301 731.7 301 686 301C640.3 301 594.7 301 548.8 301C503 301 457 301 411.2 301C365.3 301 319.7 301 274 301C228.3 301 182.7 301 137 301C91.3 301 45.7 301 22.8 301L0 301Z" fill="#3919bb"></path><path d="M0 116L22.8 120.8C45.7 125.7 91.3 135.3 137 142C182.7 148.7 228.3 152.3 274 148.5C319.7 144.7 365.3 133.3 411.2 134.3C457 135.3 503 148.7 548.8 148.2C594.7 147.7 640.3 133.3 686 134.8C731.7 136.3 777.3 153.7 823 159.5C868.7 165.3 914.3 159.7 937.2 156.8L960 154L960 301L937.2 301C914.3 301 868.7 301 823 301C777.3 301 731.7 301 686 301C640.3 301 594.7 301 548.8 301C503 301 457 301 411.2 301C365.3 301 319.7 301 274 301C228.3 301 182.7 301 137 301C91.3 301 45.7 301 22.8 301L0 301Z" fill="#4b1acb"></path><path d="M0 156L22.8 165.7C45.7 175.3 91.3 194.7 137 196.2C182.7 197.7 228.3 181.3 274 182C319.7 182.7 365.3 200.3 411.2 200.2C457 200 503 182 548.8 177.8C594.7 173.7 640.3 183.3 686 182C731.7 180.7 777.3 168.3 823 169.2C868.7 170 914.3 184 937.2 191L960 198L960 301L937.2 301C914.3 301 868.7 301 823 301C777.3 301 731.7 301 686 301C640.3 301 594.7 301 548.8 301C503 301 457 301 411.2 301C365.3 301 319.7 301 274 301C228.3 301 182.7 301 137 301C91.3 301 45.7 301 22.8 301L0 301Z" fill="#5c1adb"></path><path d="M0 225L22.8 223.8C45.7 222.7 91.3 220.3 137 217.8C182.7 215.3 228.3 212.7 274 217.7C319.7 222.7 365.3 235.3 411.2 233.5C457 231.7 503 215.3 548.8 210.8C594.7 206.3 640.3 213.7 686 217.5C731.7 221.3 777.3 221.7 823 222.7C868.7 223.7 914.3 225.3 937.2 226.2L960 227L960 301L937.2 301C914.3 301 868.7 301 823 301C777.3 301 731.7 301 686 301C640.3 301 594.7 301 548.8 301C503 301 457 301 411.2 301C365.3 301 319.7 301 274 301C228.3 301 182.7 301 137 301C91.3 301 45.7 301 22.8 301L0 301Z" fill="#6d19eb"></path><path d="M0 233L22.8 235.7C45.7 238.3 91.3 243.7 137 246.7C182.7 249.7 228.3 250.3 274 249.3C319.7 248.3 365.3 245.7 411.2 244.3C457 243 503 243 548.8 245.7C594.7 248.3 640.3 253.7 686 252.5C731.7 251.3 777.3 243.7 823 243.5C868.7 243.3 914.3 250.7 937.2 254.3L960 258L960 301L937.2 301C914.3 301 868.7 301 823 301C777.3 301 731.7 301 686 301C640.3 301 594.7 301 548.8 301C503 301 457 301 411.2 301C365.3 301 319.7 301 274 301C228.3 301 182.7 301 137 301C91.3 301 45.7 301 22.8 301L0 301Z" fill="#7f16fa"></path></svg>